<?xml version="1.0" encoding="UTF-8"?>
<!DOCTYPE svg PUBLIC "-//W3C//DTD SVG 1.1//EN" "http://www.w3.org/Graphics/SVG/1.1/DTD/svg11.dtd">
<!-- Creator: CorelDRAW X7 -->
<svg xmlns="http://www.w3.org/2000/svg" xml:space="preserve" width="60.325mm" height="26.811mm" version="1.1" style="shape-rendering:geometricPrecision; text-rendering:geometricPrecision; image-rendering:optimizeQuality; fill-rule:evenodd; clip-rule:evenodd"
viewBox="0 0 6033 2681"
 xmlns:xlink="http://www.w3.org/1999/xlink">
 <defs>
  <style type="text/css">
   <![CDATA[
    .fil0 {fill:#CDD6DE}
    .fil1 {fill:#CDD6DE;fill-rule:nonzero}
   ]]>
  </style>
 </defs>
 <g id="Слой_x0020_1">
  <metadata id="CorelCorpID_0Corel-Layer"/>
  <g id="_916586304">
   <path class="fil0" d="M304 1991c0,66 -53,118 -118,118 -65,1 -118,-52 -118,-117 0,-65 53,-118 118,-118 65,0 118,53 118,117z"/>
   <path class="fil0" d="M362 993c-48,0 -87,39 -87,87l1 752c67,23 115,85 115,159 0,75 -48,138 -114,161l0 398c0,47 39,86 87,86 47,0 86,-39 86,-86l-2 -1470c0,-48 -39,-87 -86,-87zm-272 -991l0 0 -7 0c-46,2 -83,41 -83,87l3 2461c1,47 39,86 87,86 48,0 86,-39 86,-86l0 -395c-72,-20 -124,-85 -124,-163 0,-78 52,-143 123,-163l-2 -1740c0,-47 -37,-85 -83,-87z"/>
   <path class="fil0" d="M3020 1c426,-16 744,160 889,469 51,108 106,344 -79,311 -95,-18 -102,-194 -143,-266 -127,-226 -402,-338 -728,-310 -346,31 -780,363 -559,773 208,386 1005,293 1218,627 46,74 137,380 -71,347 -88,-15 -73,-155 -116,-231 -85,-151 -364,-178 -595,-239 -203,-53 -434,-152 -551,-283 -177,-195 -191,-521 -81,-745 116,-237 420,-438 816,-453z"/>
   <path class="fil0" d="M2631 640c48,47 32,127 62,178 85,149 409,167 595,220 370,105 696,301 712,744 18,496 -386,825 -887,862 -472,35 -868,-191 -1014,-549 -33,-83 -87,-204 -18,-310 29,-1 34,-26 71,-18 132,2 110,150 134,221 173,533 1113,592 1412,140 146,-218 92,-542 -71,-691 -170,-154 -462,-198 -712,-274 -242,-74 -501,-183 -444,-496 33,-39 104,-57 160,-27z"/>
   <path class="fil0" d="M4088 217c-48,0 -87,-38 -87,-86 0,-48 39,-87 86,-87l1842 -2c47,0 86,38 86,86 0,48 -38,86 -86,86l-1841 3z"/>
   <path class="fil0" d="M4980 424c0,-48 -39,-86 -87,-86l-791 1c-48,0 -86,39 -86,86 0,48 38,87 86,87l705 -1 3 2035c0,48 39,87 87,87 47,0 86,-39 86,-87l-3 -2118 0 -1 0 -3z"/>
   <path class="fil0" d="M1995 2514l-1188 -1182 1151 -1152c33,-34 33,-89 -1,-122 -33,-34 -88,-34 -122,0l-1211 1213c-34,34 -34,88 0,122l0 0 1249 1243c34,34 89,34 122,0 34,-34 34,-89 0,-122z"/>
   <path class="fil0" d="M5411 2589l0 24c0,6 -4,11 -10,11l-258 0c-6,0 -10,-4 -10,-10l0 -24c0,-6 4,-10 10,-10l258 -1c6,0 10,5 10,10zm-323 0l0 0 0 26c0,5 -4,9 -10,9l-41 1c-5,0 -10,-5 -10,-10l0 -26c0,-6 5,-10 10,-10l41 0c6,0 10,4 10,10z"/>
   <path class="fil1" d="M5411 2301l0 25c0,5 -5,10 -10,10l-167 0c-51,0 -67,17 -67,55 0,22 8,46 20,69l214 0c5,0 10,4 10,10l0 25c0,5 -5,9 -10,9l-259 0c-5,0 -9,-4 -9,-9l0 -25c0,-6 4,-10 9,-10l10 0c-16,-28 -23,-51 -23,-81 0,-60 37,-88 105,-88l167 0c5,0 10,5 10,10z"/>
   <path class="fil1" d="M5412 2094c1,10 2,23 2,33 0,46 -12,69 -67,69l-178 0 -5 49c0,6 -4,9 -9,9l-14 0c-5,0 -9,-3 -9,-9l0 -49 -50 0c-4,0 -9,-3 -10,-9l-4 -26 0 -2c0,-4 4,-7 9,-7l55 -1 0 -54c0,-6 4,-10 10,-10l17 0c6,-1 10,4 10,10l0 54 178 0c27,0 31,-7 31,-27l0 -29c0,-7 2,-10 7,-10l18 0c4,0 8,2 9,9z"/>
   <path class="fil0" d="M5247 1868c-58,0 -80,23 -80,67 0,43 25,68 80,68l4 0 0 -135 -4 0zm38 -35l0 0 0 170 7 -1c61,0 83,-23 83,-70 0,-29 -2,-67 -6,-90l0 -3c0,-4 2,-8 7,-8l18 0c6,0 9,2 11,10 6,29 9,57 9,91 0,58 -27,115 -122,115l-45 0c-72,0 -119,-40 -119,-112 0,-74 47,-111 119,-111l27 0c7,0 11,3 11,9z"/>
   <path class="fil1" d="M5166 1648c0,23 6,45 22,70l212 0c5,0 10,5 10,10l0 25c0,5 -5,9 -10,9l-259 1c-5,0 -9,-4 -9,-10l0 -24c0,-5 4,-9 9,-9l11 0c-18,-26 -24,-49 -24,-72 0,-7 3,-10 9,-10l21 0c5,0 8,3 8,10z"/>
   <path class="fil1" d="M5060 1453l0 24c0,24 7,31 35,31l36 0 0 -53c0,-6 4,-10 9,-10l20 0c5,0 9,4 9,10l0 53 231 0c5,0 9,5 9,9l0 25c0,6 -4,10 -9,10l-231 0 -6 50c0,5 -4,9 -9,9l-14 0c-5,0 -9,-4 -9,-9l0 -50 -36 0c-55,0 -71,-26 -71,-70 0,-14 2,-22 3,-29 1,-5 4,-9 8,-9l17 0c5,0 8,3 8,9z"/>
   <path class="fil0" d="M5251 1236c-52,0 -85,21 -85,69 0,47 33,67 85,67l39 0c51,0 84,-20 84,-67 0,-48 -33,-69 -84,-69l-39 0zm162 68l0 0c0,75 -49,113 -123,113l-39 0c-74,0 -124,-38 -124,-112 0,-75 49,-113 124,-113l38 0c75,0 124,38 124,112z"/>
   <path class="fil1" d="M5165 1018c0,23 6,44 22,70l212 -1c5,0 10,4 10,10l0 25c0,5 -4,10 -10,10l-258 0c-6,0 -11,-4 -11,-9l0 -24c0,-6 5,-10 11,-10l10 0c-17,-25 -24,-48 -24,-71 0,-7 3,-11 9,-11l21 0c5,0 8,4 8,11z"/>
   <path class="fil1" d="M5408 755l1 25c0,6 -5,10 -10,10l-10 0c16,28 24,51 24,81 0,60 -38,88 -106,88l-167 0c-5,0 -10,-5 -10,-10l0 -24c0,-6 5,-11 10,-11l167 0c51,0 67,-17 67,-56 0,-21 -8,-44 -20,-68l-214 0c-5,1 -10,-4 -10,-10l0 -25c0,-5 5,-9 10,-9l259 -1c5,0 9,4 9,10z"/>
   <path class="fil1" d="M5408 352l0 24c0,6 -5,10 -10,10l-179 0c-43,1 -54,20 -54,47 0,18 6,39 13,59 12,-3 25,-5 40,-5l180 0c5,0 10,3 10,9l0 27c0,5 -4,8 -10,8l-180 1c-44,0 -53,13 -53,38 0,19 9,41 20,63l214 -1c4,0 9,3 9,9l0 27c0,5 -4,9 -9,9l-259 0c-6,0 -10,-4 -10,-10l0 -25c0,-6 4,-9 10,-9l9 0c-12,-21 -23,-46 -23,-74 0,-22 6,-38 20,-51 -13,-28 -20,-58 -20,-84 0,-45 22,-82 93,-82l179 -1c5,0 10,5 10,11z"/>
   <path class="fil0" d="M221 1874l0 236c65,-1 118,-53 118,-119 0,-64 -53,-117 -118,-117z"/>
  </g>
 </g>
</svg>
